<svg xmlns="http://www.w3.org/2000/svg" version="1.1" xmlns:xlink="http://www.w3.org/1999/xlink" xmlns:svgjs="http://svgjs.dev/svgjs" width="1000" height="750" viewBox="0 0 1000 750"><rect width="1000" height="750" fill="#ffffff"></rect><g transform="matrix(0.5204991087344029,0,0,0.5204991087344029,240.18733425917196,83.23644370018235)"><svg viewBox="0 0 220 247" data-background-color="#ffffff" preserveAspectRatio="xMidYMid meet" height="1122" width="1000" xmlns="http://www.w3.org/2000/svg" xmlns:xlink="http://www.w3.org/1999/xlink"><g id="tight-bounds" transform="matrix(1,0,0,1,-0.18465957199958893,-0.10000272935795351)"><svg viewBox="0 0 220.36931982633863 247.2" height="247.2" width="220.36931982633863"><g><svg viewBox="0 0 220.36931982633863 247.2" height="247.2" width="220.36931982633863"><g><svg viewBox="0 0 220.36931982633863 247.2" height="247.2" width="220.36931982633863"><g id="textblocktransform"><svg viewBox="0 0 220.36931982633863 247.2" height="247.2" width="220.36931982633863" id="textblock"><g><svg viewBox="0 0 220.36931982633863 247.2" height="247.2" width="220.36931982633863"><g transform="matrix(1,0,0,1,0,0)"><svg width="220.36931982633863" viewBox="2.9000000953674316 -34.25 30.80000114440918 34.54999923706055" height="247.2" data-palette-color="#ec9131"><g class="undefined-text-0" data-fill-palette-color="primary" id="text-0"><path d="M33.7-28.25L33.7-28.25 33.7-13.35Q33.7-6.05 30.18-2.88 26.65 0.3 18.3 0.3L18.3 0.3Q10.35 0.3 6.63-3.1 2.9-6.5 2.9-13.35L2.9-13.35 2.9-28.25Q2.9-30.9 4.48-32.58 6.05-34.25 8.45-34.25L8.45-34.25Q11.4-34.25 12.93-33.15 14.45-32.05 14.45-28.7L14.45-28.7 14.45-12.4Q14.5-10.8 14.98-9.85 15.45-8.9 16.25-8.53 17.05-8.15 18.3-8.15 19.55-8.15 20.35-8.45 21.15-8.75 21.53-9.4 21.9-10.05 22.03-10.7 22.15-11.35 22.15-12.4L22.15-12.4 22.15-28.75Q22.15-30.45 22.58-31.6 23-32.75 23.88-33.3 24.75-33.85 25.68-34.05 26.6-34.25 27.9-34.25L27.9-34.25Q30.8-34.25 32.25-32.85 33.7-31.45 33.7-28.25Z" fill="#ec9131" data-fill-palette-color="primary"></path></g></svg></g></svg></g></svg></g></svg></g></svg></g><defs></defs></svg><rect width="220.36931982633863" height="247.2" fill="none" stroke="none" visibility="hidden"></rect></g></svg></g></svg>